# xmcd CD database file
#
# Track frame offsets:
#	150
#	11817
#	27110
#	43477
#	61450
#	75590
#	92645
#	102797
#	121285
#	143205
#	155720
#
# Disc length: 2389 seconds
#
# Revision: 6
# Processed by: cddbd v1.5.2PL0 Copyright (c) Steve Scherf et al.
# Submitted via: CDex 1.51
#
DISCID=8f09530b
DTITLE=Steve Earle - Guitar Town [Remastered 2002]
DYEAR=1986
DGENRE=Country Rock
TTITLE0=Guitar Town
TTITLE1=Goodbye's All We've Got Left
TTITLE2=Hillbilly Highway
TTITLE3=Good Ol' Boy (Gettin' Tough)
TTITLE4=My Old Friend the Blues
TTITLE5=Someday
TTITLE6=Think It Over
TTITLE7=Fearless Heart
TTITLE8=Little Rock 'N' Roller
TTITLE9=Down the Road
TTITLE10=State Trooper (Live) [bonus]
EXTD=Steve Earle - guitar town YEAR: 1986
EXTT0=
EXTT1=
EXTT2=
EXTT3=
EXTT4=
EXTT5=
EXTT6=
EXTT7=
EXTT8=
EXTT9=
EXTT10=
PLAYORDER=
